<?xml version="1.0" encoding="UTF-8"?>
<svg id="GoogleIcon" xmlns="http://www.w3.org/2000/svg" viewBox="0 0 56.71 56.71">
  <defs>
    <style>
      .cls-1 {
        fill: #4285f4;
      }

      .cls-2 {
        fill: #fab600;
      }

      .cls-3 {
        fill: #e93c2e;
      }

      .cls-4 {
        fill: #34a853;
      }
    </style>
  </defs>
  <path class="cls-3" d="M28.35,0C17.24,0,7.63,6.39,2.98,15.7c3.13,1.93,5.99,4.69,9.15,6.54,2.47-6.56,8.8-11.24,16.23-11.24,4.13,0,7.91,1.45,10.88,3.85,.33,.27,.81,.26,1.11-.05l6.64-6.64c.34-.34,.33-.9-.03-1.21C41.98,2.63,35.47,0,28.35,0Z"/>
  <path class="cls-2" d="M12.57,35.53c-1-2.19-1.57-4.62-1.57-7.18,0-2.15,.41-4.21,1.13-6.11-3.16-1.85-6.01-4.62-9.15-6.54-1.9,3.81-2.98,8.1-2.98,12.65,0,4.9,1.25,9.52,3.44,13.54,2.58-2.9,6.36-3.79,9.13-6.36Z"/>
  <path class="cls-4" d="M28.35,45.71c-7.02,0-13.05-4.18-15.79-10.18-2.77,2.57-6.55,3.46-9.13,6.36,4.81,8.82,14.16,14.81,24.92,14.81,7.41,0,14.15-2.84,19.2-7.49-2.88-2.15-5.35-5.51-8.32-7.36-2.97,2.41-6.75,3.86-10.88,3.86Z"/>
  <path class="cls-1" d="M28.62,25.35v7.66c0,.48,.39,.87,.87,.87h15.31c-1.06,3.17-3.02,5.93-5.57,7.98,2.97,1.86,5.44,5.22,8.32,7.36,5.63-5.18,9.16-12.61,9.16-20.86,0-.93-.05-1.84-.14-2.75-.06-.65-.62-1.13-1.27-1.13H29.49c-.48,0-.87,.39-.87,.87Z"/>
</svg>