<svg xmlns="http://www.w3.org/2000/svg" viewBox="0 0 441.59 601.3">
    <defs>
        <style>
            .cls-1 {
                fill: #2a324b;
            }

            .cls-2 {
                fill: #6db1bf;
            }

            .cls-3 {
                fill: #ffeaec;
            }

            .cls-4 {
                fill: #1446a0;
            }

            .cls-5 {
                fill: #ed254e;
            }
        </style>
    </defs>
    <g id="Layer_2" data-name="Layer 2">
        <g id="Color">
            <g id="Caja_fuerte_copy" data-name="Caja fuerte copy">
                <path class="cls-1"
                    d="M13.3,0,430.41,3.3a11.26,11.26,0,0,1,11.17,11.53l-13.41,570a11.25,11.25,0,0,1-11.1,11L24.54,601.3a11.26,11.26,0,0,1-11.42-11L2,11.48A11.26,11.26,0,0,1,13.3,0Z" />
                <polygon class="cls-2" points="29.6 26.62 416.31 28.94 402.37 575.91 37.73 579.39 29.6 26.62" />
            </g>
            <path class="cls-3"
                d="M208.18,254.56l-106.26-.17a23.22,23.22,0,1,0,.42,16.72c24.38.88,101.6,3.58,106.7,2.83,4.28-.94,7,.54,7.8-8.35C216.06,254.48,208.18,254.56,208.18,254.56Z" />
            <path class="cls-2" d="M62,245.06s23.65-18.7,39.12,4.88C101.16,249.94,89.79,216.39,62,245.06Z" />
            <path class="cls-2" d="M45,256.42s20.26,63.05,67,17.9C112,274.32,66.93,331.39,45,256.42Z" />
            <g id="Llaves_copy" data-name="Llaves copy">
                <path class="cls-3"
                    d="M40.83,206.82c1.82-8.8-7.22-13.43-7.22-13.43a3.53,3.53,0,0,1,1.22-2.53c1.24-1.1.08-1.92.08-1.92l-3.83-.06v-3.51L33.31,183l-3.09-3.14,2.7-2.62.09-2.5-2.77-2.91,1.74-2-.07-2.23c.22-1-4.44-5.45-4.44-5.45-1.6.13-3.3,3.62-3.3,3.62L24,189l-2.56-.09c-2,1-.67,2.17-.67,2.17l1.66,2.42c-6.39,3.85-7.58,8.5-7.22,12.11a12.32,12.32,0,0,0,4.69,8.41c6.19,4.93,11.91,3,15.38.76A12.59,12.59,0,0,0,40.83,206.82ZM24.4,210.27a3.14,3.14,0,1,1,3.09,3.19A3.15,3.15,0,0,1,24.4,210.27Z" />
                <polygon class="cls-4" points="28.04 163.34 29.18 164.69 29.07 191.19 27.85 194.31 28.04 163.34" />
            </g>
            <g id="Candado_copy" data-name="Candado copy">
                <path class="cls-3"
                    d="M48.27,139.9a3.66,3.66,0,0,1-3.65-3.39c-.16-2.13-.15-4.62-.15-7.51,0-9.56,0-22.64-6.28-28.87-2.61-2.58-6.17-3.84-10.88-3.84h-.17c-7.42.78-12,4.43-14.28,11.49-2.17,6.61-1.94,14.8-1.76,21.38.07,2.82.14,5.26,0,7.3A3.66,3.66,0,1,1,3.81,136c.1-1.72,0-4,0-6.66-.2-7.15-.44-16,2.12-23.86a24.43,24.43,0,0,1,6.9-11A24,24,0,0,1,26.58,89l.16,0h.56c6.65,0,12,2,16,6,8.47,8.38,8.46,23.24,8.45,34.09,0,2.74,0,5.1.13,7a3.65,3.65,0,0,1-3.38,3.91Z" />
                <path class="cls-3"
                    d="M0,128.26a.7.7,0,0,1,.68-.7c6.39-.09,55.26-.76,55.48,0s.24,42.27.24,42.27a3.19,3.19,0,0,1-2.47,3.3c-2.37.38-9.43.58-17.56.68-14.93.18-33.18-.66-33.18-.66S.5,172.57.64,170.1C.76,167.82.05,133.67,0,128.26Z" />
                <path class="cls-4" d="M4.07,127.54l47.87-.26S30.44,134.63,4.07,127.54Z" />
                <path class="cls-4" d="M35.48,173.29l19.27-1.13S56,173.86,35.48,173.29Z" />
                <rect class="cls-2" x="15.79" y="79.59" width="4.65" height="33.68" rx="1.35" />
                <rect class="cls-2" x="36.56" y="79.46" width="4.26" height="33.68" rx="1.35" />
            </g>
            <g id="Escribe_el_codigo_copy" data-name="Escribe el codigo copy">
                <rect class="cls-3" x="50.77" y="315.39" width="87.82" height="110" rx="5.47"
                    transform="translate(-3.07 0.8) rotate(-0.48)" />
                <rect class="cls-1" x="55.5" y="319.83" width="78.95" height="101.13" rx="9.1"
                    transform="translate(-3.07 0.8) rotate(-0.48)" />
                <path class="cls-2"
                    d="M55.82,394.85H82.13a0,0,0,0,1,0,0v26.32a0,0,0,0,1,0,0H64.77a9,9,0,0,1-9-9V394.85a0,0,0,0,1,0,0Z"
                    transform="translate(-3.38 0.59) rotate(-0.48)" />
                <rect class="cls-2" x="81.91" y="368.32" width="26.32" height="26.32"
                    transform="translate(-3.16 0.8) rotate(-0.48)" />
                <path class="cls-2"
                    d="M108.45,394.42h26.32a0,0,0,0,1,0,0v16.64a9.68,9.68,0,0,1-9.68,9.68H108.45a0,0,0,0,1,0,0V394.42A0,0,0,0,1,108.45,394.42Z"
                    transform="translate(-3.38 1.02) rotate(-0.48)" />
                <rect class="cls-2" x="55.38" y="342.22" width="26.32" height="26.32"
                    transform="translate(-2.95 0.58) rotate(-0.48)" />
                <rect class="cls-2" x="108.01" y="341.79" width="26.32" height="26.32"
                    transform="translate(-2.94 1.02) rotate(-0.48)" />
                <rect class="cls-3" x="82.13" y="394.64" width="26.32" height="26.32"
                    transform="translate(-3.38 0.8) rotate(-0.48)" />
                <rect class="cls-3" x="55.6" y="368.54" width="26.32" height="26.32"
                    transform="translate(-3.16 0.58) rotate(-0.48)" />
                <rect class="cls-3" x="108.23" y="368.1" width="26.32" height="26.32"
                    transform="translate(-3.16 1.02) rotate(-0.48)" />
                <rect class="cls-3" x="81.7" y="342" width="26.32" height="26.32"
                    transform="translate(-2.94 0.8) rotate(-0.48)" />
                <path class="cls-3"
                    d="M65.13,326.16l0,4.13-1.33,1.32-.45-.43,0-5.66Zm-1.69,12,0-5.65.45-.44,1.35,1.29,0,4.14Zm8.5,1.45-7.37.07a1.43,1.43,0,0,1-1.13-1.08l1.78-.67,6,0Zm-.79-13.91-6,.05-1.8-.63a1.44,1.44,0,0,1,1.11-1.1l7.35-.06Z" />
                <path class="cls-3"
                    d="M81.25,331.46,80.8,331l0-5,1.1-1.1.68.65,0,4.57Zm1.35,1.73,0,4.57-.66.65-1.13-1.07,0-5,.44-.44Zm5.3-7.65-4.91,0-.9-.87.88-.87,4.91,0,.91.86Zm1,13-.89.88-4.91,0-.9-.86.89-.88,4.91,0Zm-.52-8.47,0-4.57.66-.66L90.14,326l0,5-.45.44Zm1.36,1.73.45.43,0,5-1.11,1.09-.67-.64,0-4.57Z" />
                <path class="cls-3"
                    d="M106.21,325.38l-5.36.05-1.79-.64V323.7l7.14-.06.9.87Zm-5.36.48,0,4.13-1.33,1.32-.45-.43,0-5.65Zm-1.68,12,0-5.66.44-.44,1.35,1.3,0,4.13Zm8,.58-.89.88-7.12.06v-1.09l1.78-.67,5.34,0Zm-.5-8.47,0-4.57.66-.66,1.13,1.08,0,5-.45.44Zm1.36,1.72.45.44,0,5-1.11,1.09-.67-.64,0-4.57Z" />
                <path class="cls-3"
                    d="M119.16,325.71l0,4.13-1.33,1.32-.45-.43,0-5.66Zm-1.68,12,0-5.65.44-.44,1.35,1.3,0,4.13Zm8.49,1.46-7.36.06a1.41,1.41,0,0,1-1.13-1.08l1.78-.67,6-.05Zm-.78-13.91-6,0-1.79-.64a1.41,1.41,0,0,1,1.11-1.1l7.34-.06Zm-.18,5.22.9.86-.89.88-5.8,0-.9-.86.88-.88Z" />
            </g>
            <g id="Protector_copy" data-name="Protector copy">
                <polyline class="cls-1" points="365.69 83.58 418.89 93.53 418.63 83.01 365.69 83.58" />
                <polyline class="cls-1" points="355.97 449.12 410.37 457.97 410.37 446.88 355.97 449.12" />
                <polyline class="cls-1" points="354.08 547.49 408.82 558.36 408.31 547.01 354.08 547.49" />
                <rect class="cls-5" x="419.07" y="55.67" width="18.09" height="40.52" rx="2.56"
                    transform="translate(0.82 -4.51) rotate(0.6)" />
                <rect class="cls-3" x="365.78" y="66.73" width="71.63" height="17.61" rx="0.38"
                    transform="translate(0.82 -4.23) rotate(0.6)" />
                <rect class="cls-5" x="409.27" y="420.55" width="18.09" height="40.52" rx="2.56" />
                <rect class="cls-3" x="355.97" y="431.89" width="71.63" height="17.61" rx="0.38" />
                <rect class="cls-5" x="407.31" y="521.15" width="18.09" height="40.52" rx="2.56"
                    transform="translate(23.01 -16.94) rotate(2.4)" />
                <rect class="cls-3" x="354.04" y="531.37" width="71.63" height="17.61" rx="0.38"
                    transform="translate(22.93 -15.83) rotate(2.4)" />
            </g>
            <g id="Complementos">
                <path class="cls-1"
                    d="M91.14,263H86.08a5.93,5.93,0,0,0-5-5.23v-4.91h-1v4.84a5.93,5.93,0,0,0-5.78,5.3H69.85v1h4.41a5.92,5.92,0,0,0,5.8,5.56v4.59h1v-4.66a5.91,5.91,0,0,0,5-5.49h5Z" />
            </g>
        </g>
    </g>
</svg>